<?xml version="1.0" encoding="utf-8"?>
<!-- Generator: Adobe Illustrator 16.0.0, SVG Export Plug-In . SVG Version: 6.00 Build 0)  -->
<!DOCTYPE svg PUBLIC "-//W3C//DTD SVG 1.1//EN" "http://www.w3.org/Graphics/SVG/1.1/DTD/svg11.dtd">
<svg version="1.1" id="Layer_1" xmlns="http://www.w3.org/2000/svg" xmlns:xlink="http://www.w3.org/1999/xlink" x="0px" y="0px"
	 width="250px" height="55px" viewBox="0 0 250 55" enable-background="new 0 0 250 55" xml:space="preserve">
<g>
	<g>
		<path fill="#191919" d="M13.688,36.337l-8.319-9.446l8.319-9.488h10.615l-8.32,9.488l8.32,9.446H13.688z"/>
		<path fill="#191919" d="M47.44,20.109c1.589,1.864,2.385,4.397,2.385,7.604V41.84h-8.449V28.798c0-1.415-0.37-2.521-1.105-3.313
			c-0.737-0.796-1.726-1.192-2.968-1.192c-1.272,0-2.282,0.411-3.034,1.234c-0.751,0.822-1.126,1.957-1.126,3.402V41.84h-8.536
			V9.776h8.536v11.829c0.694-1.302,1.703-2.34,3.032-3.121c1.33-0.78,2.889-1.169,4.679-1.169
			C43.657,17.315,45.853,18.247,47.44,20.109z"/>
		<path fill="#191919" d="M64.795,18.333c1.258,0.736,2.188,1.756,2.794,3.055v-3.855h8.494V41.84h-8.494v-3.855
			c-0.606,1.3-1.536,2.316-2.794,3.054c-1.257,0.736-2.738,1.105-4.441,1.105c-1.937,0-3.683-0.499-5.243-1.495
			c-1.559-0.996-2.787-2.44-3.682-4.332c-0.896-1.894-1.344-4.11-1.344-6.652c0-2.54,0.447-4.751,1.344-6.629
			c0.895-1.878,2.123-3.315,3.682-4.312c1.561-0.997,3.307-1.494,5.243-1.494C62.057,17.229,63.538,17.597,64.795,18.333z
			 M59.94,26.003c-0.821,0.881-1.232,2.102-1.232,3.661c0,1.589,0.411,2.824,1.232,3.704c0.826,0.882,1.901,1.322,3.23,1.322
			c1.27,0,2.324-0.448,3.163-1.343c0.836-0.896,1.255-2.124,1.255-3.684c0-1.53-0.419-2.743-1.255-3.64
			c-0.839-0.896-1.894-1.344-3.163-1.344C61.842,24.681,60.767,25.122,59.94,26.003z"/>
		<path fill="#191919" d="M96.751,19.849c2.137,1.749,3.48,4.168,4.028,7.26h-9.013c-0.202-0.839-0.569-1.479-1.105-1.928
			c-0.534-0.447-1.221-0.674-2.058-0.674c-1.038,0-1.884,0.441-2.534,1.322c-0.649,0.882-0.977,2.16-0.977,3.835
			c0,1.704,0.327,2.989,0.977,3.855c0.65,0.867,1.496,1.302,2.534,1.302c0.837,0,1.523-0.224,2.058-0.672
			c0.536-0.447,0.903-1.092,1.105-1.93h9.013c-0.548,3.092-1.892,5.518-4.028,7.28c-2.139,1.763-4.781,2.644-7.93,2.644
			c-2.426,0-4.57-0.499-6.437-1.495c-1.86-0.996-3.313-2.44-4.354-4.332c-1.039-1.894-1.559-4.11-1.559-6.652
			c0-2.54,0.52-4.751,1.559-6.629c1.041-1.878,2.5-3.315,4.378-4.312c1.878-0.997,4.015-1.494,6.413-1.494
			C91.97,17.229,94.612,18.103,96.751,19.849z"/>
		<path fill="#191919" d="M116.336,41.84l-6.63-10.051V41.84h-8.537V9.776h8.537v17.203l6.671-9.447h9.924l-9.447,12.176
			l9.709,12.132H116.336z"/>
		<path fill="#191919" d="M142.811,19.569c1.906,1.56,3.105,3.626,3.598,6.196h-7.973c-0.203-0.867-0.615-1.519-1.238-1.949
			c-0.621-0.434-1.379-0.652-2.273-0.652c-0.637,0-1.119,0.137-1.451,0.411c-0.334,0.276-0.498,0.659-0.498,1.15
			c0,0.606,0.354,1.061,1.061,1.364s1.871,0.642,3.49,1.019c1.875,0.404,3.43,0.837,4.656,1.299
			c1.229,0.461,2.297,1.213,3.207,2.253s1.363,2.441,1.363,4.203c0,1.415-0.389,2.673-1.17,3.77c-0.779,1.099-1.912,1.957-3.4,2.578
			c-1.486,0.622-3.242,0.933-5.264,0.933c-3.41,0-6.125-0.737-8.146-2.21c-2.023-1.474-3.25-3.582-3.684-6.325h8.189
			c0.115,0.896,0.498,1.559,1.148,1.992s1.467,0.648,2.447,0.648c0.666,0,1.17-0.143,1.518-0.432c0.348-0.287,0.52-0.665,0.52-1.127
			c0-0.694-0.369-1.198-1.105-1.516c-0.734-0.318-1.912-0.636-3.531-0.955c-1.848-0.375-3.363-0.786-4.549-1.235
			c-1.184-0.445-2.219-1.169-3.1-2.165c-0.881-0.998-1.32-2.377-1.32-4.139c0-2.193,0.852-3.985,2.557-5.371
			c1.705-1.388,4.131-2.08,7.279-2.08C138.346,17.229,140.902,18.008,142.811,19.569z"/>
		<path fill="#191919" d="M168.418,18.724c1.559,0.996,2.785,2.434,3.682,4.312c0.895,1.878,1.344,4.089,1.344,6.629
			c0,2.542-0.449,4.759-1.344,6.652c-0.896,1.892-2.123,3.336-3.682,4.332c-1.562,0.996-3.311,1.495-5.244,1.495
			c-1.705,0-3.18-0.369-4.42-1.105c-1.244-0.737-2.166-1.754-2.773-3.054v15.469h-8.537V17.532h8.537v3.855
			c0.607-1.299,1.529-2.318,2.773-3.055c1.24-0.736,2.715-1.104,4.42-1.104C165.107,17.229,166.855,17.727,168.418,18.724z
			 M157.193,26.024c-0.836,0.896-1.254,2.109-1.254,3.64c0,1.56,0.418,2.788,1.254,3.684c0.838,0.895,1.893,1.343,3.164,1.343
			c1.328,0,2.404-0.44,3.227-1.322c0.824-0.88,1.236-2.115,1.236-3.704c0-1.56-0.412-2.78-1.236-3.661
			c-0.822-0.881-1.898-1.322-3.227-1.322C159.086,24.681,158.031,25.129,157.193,26.024z"/>
		<path fill="#191919" d="M212.873,34.56v7.28h-3.51c-2.977,0-5.303-0.737-6.977-2.21c-1.678-1.474-2.512-3.914-2.512-7.322v-7.67
			h-3.121v-7.105h3.121v-5.892h8.535v5.892h4.377v7.105h-4.377v7.842c0,0.754,0.166,1.287,0.498,1.605
			c0.332,0.316,0.889,0.475,1.668,0.475H212.873z"/>
		<path fill="#191919" d="M229.943,0.547l-11.568,49.655h-8.189l11.611-49.655H229.943z"/>
		<path fill="#191919" d="M226.434,17.402h10.617l8.318,9.488l-8.318,9.446h-10.617l8.322-9.446L226.434,17.402z"/>
	</g>
	<path fill="#D05353" d="M185.398,17.229c-6.541,0-11.84,5.15-11.84,11.508c0,2.899,1.107,5.548,2.928,7.571l-0.004,0.005
		l0.059,0.055c0.312,0.347,0.652,0.672,1.004,0.979l7.848,7.626l7.758-7.54c2.504-2.109,4.092-5.221,4.092-8.695
		C197.242,22.38,191.939,17.229,185.398,17.229z M185.398,33.687c-2.812,0-5.094-2.215-5.094-4.949s2.281-4.949,5.094-4.949
		c2.814,0,5.096,2.215,5.096,4.949S188.213,33.687,185.398,33.687z"/>
</g>
</svg>
